<svg class="svg-icon" style="width: 1em; height: 1em;vertical-align: middle;fill: currentColor;overflow: hidden;" viewBox="0 0 1024 1024" version="1.1" xmlns="http://www.w3.org/2000/svg"><path d="M883.463379 360.628706c0-16.474353 13.402353-29.816471 29.936941-29.816471 16.564706 0 29.936941 13.342118 29.936941 29.816471V994.183529c0 16.474353-13.402353 29.846588-29.936941 29.846589H44.988085A29.906824 29.906824 0 0 1 15.051144 994.183529V98.876235c0-16.474353 13.402353-29.816471 29.936941-29.81647h660.871529c16.564706 0 29.967059 13.342118 29.967059 29.81647 0 16.504471-13.402353 29.846588-29.967059 29.846589H74.985261v835.553882h808.508235V360.628706zM224.669967 576.391529a29.906824 29.906824 0 0 1-29.936941-29.846588c0-16.474353 13.402353-29.846588 29.936941-29.846588h375.506824c16.564706 0 29.936941 13.372235 29.936941 29.816471 0 16.504471-13.402353 29.876706-29.936941 29.876705H224.669967z m0-179.049411a29.906824 29.906824 0 0 1-29.936941-29.846589c0-16.474353 13.402353-29.846588 29.936941-29.846588h276.690824c16.564706 0 29.936941 13.372235 29.936941 29.816471 0 16.504471-13.402353 29.876706-29.936941 29.876706H224.669967z m0 358.098823a29.906824 29.906824 0 0 1-29.936941-29.846588c0-16.474353 13.402353-29.846588 29.936941-29.846588h471.792941c16.564706 0 29.967059 13.372235 29.967059 29.81647 0 16.504471-13.432471 29.876706-29.967059 29.876706H224.669967zM956.829967 9.788235a30.027294 30.027294 0 0 1 42.255059-2.048 29.756235 29.756235 0 0 1 2.108235 42.164706L664.688791 419.779765a30.027294 30.027294 0 0 1-42.285177 2.078117 29.756235 29.756235 0 0 1-2.108235-42.164706L956.829967 9.788235z" fill="#00782e" /></svg>